<?xml version="1.0" encoding="UTF-8" standalone="no"?>
<svg
   xmlns:dc="http://purl.org/dc/elements/1.1/"
   xmlns:cc="http://creativecommons.org/ns#"
   xmlns:rdf="http://www.w3.org/1999/02/22-rdf-syntax-ns#"
   xmlns:svg="http://www.w3.org/2000/svg"
   xmlns="http://www.w3.org/2000/svg"
   xmlns:sodipodi="http://sodipodi.sourceforge.net/DTD/sodipodi-0.dtd"
   xmlns:inkscape="http://www.inkscape.org/namespaces/inkscape"
   width="20"
   height="20"
   version="1.1"
   id="svg8"
   sodipodi:docname="facebook.svg"
   inkscape:version="0.92.4 5da689c313, 2019-01-14">
  <metadata
     id="metadata14">
    <rdf:RDF>
      <cc:Work
         rdf:about="">
        <dc:format>image/svg+xml</dc:format>
        <dc:type
           rdf:resource="http://purl.org/dc/dcmitype/StillImage" />
        <dc:title></dc:title>
      </cc:Work>
    </rdf:RDF>
  </metadata>
  <defs
     id="defs12" />
  <sodipodi:namedview
     pagecolor="#ffffff"
     bordercolor="#666666"
     borderopacity="1"
     objecttolerance="10"
     gridtolerance="10"
     guidetolerance="10"
     inkscape:pageopacity="0"
     inkscape:pageshadow="2"
     inkscape:window-width="1920"
     inkscape:window-height="1043"
     id="namedview10"
     showgrid="false"
     inkscape:zoom="22.627417"
     inkscape:cx="9.2776978"
     inkscape:cy="-0.76716337"
     inkscape:window-x="0"
     inkscape:window-y="37"
     inkscape:window-maximized="1"
     inkscape:current-layer="svg8" />
  <path
     style="opacity:1;fill:#ffffff;fill-opacity:1;stroke:none;stroke-width:18.33872604;stroke-linecap:round;stroke-linejoin:miter;stroke-miterlimit:4;stroke-dasharray:none;stroke-dashoffset:0;stroke-opacity:1;paint-order:stroke fill markers"
     d="M 11.571808,19.876973 C 11.059776,19.957939 10.534798,20 10,20 9.470853,20 8.9513195,19.958841 8.4444262,19.879533 -16.009211,-2.1035465 38.618255,-2.3039341 11.571808,19.877009 Z"
     id="path821"
     inkscape:connector-curvature="0"
     sodipodi:nodetypes="cscc" />
  <path
     d="M 20,10.001126 C 20,4.4780969 15.522407,0 10,0 4.4775931,0 0,4.4780969 0,10.001126 c 0,4.991368 3.6563075,9.129087 8.4376465,9.880155 V 12.892716 H 5.8978981 v -2.89159 H 8.4376465 V 7.7971424 c 0,-2.5061407 1.4934564,-3.8916303 3.7772645,-3.8916303 1.094081,0 2.238707,0.195555 2.238707,0.195555 v 2.4612498 h -1.26142 c -1.241735,0 -1.629862,0.7707181 -1.629862,1.5625655 v 1.8762246 h 2.773191 l -0.442965,2.891591 h -2.330281 v 6.988565 c 4.781339,-0.749661 8.437647,-4.887345 8.437647,-9.880336"
     id="path4"
     style="fill:#1877f2;fill-opacity:1;stroke-width:1.80274773"
     inkscape:connector-curvature="0" />
</svg>
