<?xml version="1.0" encoding="UTF-8" standalone="no"?>
<!-- Created with Inkscape (http://www.inkscape.org/) -->

<svg
   xmlns:dc="http://purl.org/dc/elements/1.1/"
   xmlns:cc="http://creativecommons.org/ns#"
   xmlns:rdf="http://www.w3.org/1999/02/22-rdf-syntax-ns#"
   xmlns:svg="http://www.w3.org/2000/svg"
   xmlns="http://www.w3.org/2000/svg"
   xmlns:sodipodi="http://sodipodi.sourceforge.net/DTD/sodipodi-0.dtd"
   xmlns:inkscape="http://www.inkscape.org/namespaces/inkscape"
   width="400"
   height="175.49457"
   id="svg2"
   version="1.1"
   inkscape:version="0.47 r22583"
   sodipodi:docname="Logo BEI por Hernando.svg">
  <defs
     id="defs4">
    <inkscape:perspective
       sodipodi:type="inkscape:persp3d"
       inkscape:vp_x="0 : 526.18109 : 1"
       inkscape:vp_y="0 : 1000 : 0"
       inkscape:vp_z="744.09448 : 526.18109 : 1"
       inkscape:persp3d-origin="372.04724 : 350.78739 : 1"
       id="perspective10" />
    <inkscape:perspective
       id="perspective9738"
       inkscape:persp3d-origin="0.5 : 0.33333333 : 1"
       inkscape:vp_z="1 : 0.5 : 1"
       inkscape:vp_y="0 : 1000 : 0"
       inkscape:vp_x="0 : 0.5 : 1"
       sodipodi:type="inkscape:persp3d" />
    <clipPath
       clipPathUnits="userSpaceOnUse"
       id="clipPath3180">
      <path
         d="m 596.741,190.075 149.223,0 0,64.79 -149.223,0 0,-64.79"
         id="path3182" />
    </clipPath>
    <inkscape:perspective
       id="perspective12948"
       inkscape:persp3d-origin="0.5 : 0.33333333 : 1"
       inkscape:vp_z="1 : 0.5 : 1"
       inkscape:vp_y="0 : 1000 : 0"
       inkscape:vp_x="0 : 0.5 : 1"
       sodipodi:type="inkscape:persp3d" />
    <inkscape:perspective
       id="perspective8202"
       inkscape:persp3d-origin="0.5 : 0.33333333 : 1"
       inkscape:vp_z="1 : 0.5 : 1"
       inkscape:vp_y="0 : 1000 : 0"
       inkscape:vp_x="0 : 0.5 : 1"
       sodipodi:type="inkscape:persp3d" />
  </defs>
  <sodipodi:namedview
     id="base"
     pagecolor="#ffffff"
     bordercolor="#666666"
     borderopacity="1.0"
     inkscape:pageopacity="0.0"
     inkscape:pageshadow="2"
     inkscape:zoom="0.35"
     inkscape:cx="71.569388"
     inkscape:cy="-45.087756"
     inkscape:document-units="px"
     inkscape:current-layer="layer1"
     showgrid="false"
     inkscape:window-width="1280"
     inkscape:window-height="968"
     inkscape:window-x="-4"
     inkscape:window-y="-4"
     inkscape:window-maximized="1" />
  <metadata
     id="metadata7">
    <rdf:RDF>
      <cc:Work
         rdf:about="">
        <dc:format>image/svg+xml</dc:format>
        <dc:type
           rdf:resource="http://purl.org/dc/dcmitype/StillImage" />
        <dc:title></dc:title>
      </cc:Work>
    </rdf:RDF>
  </metadata>
  <g
     inkscape:label="Capa 1"
     inkscape:groupmode="layer"
     id="layer1"
     transform="translate(-309.85919,-343.20843)">
    <g
       id="g2010"
       transform="matrix(7.4723057,0,0,-7.4723057,642.24229,518.703)">
      <path
         d="m 0,0 c 4.977,0 9.049,4.077 9.049,9.049 l 0,5.389 c 0,4.973 -4.072,9.048 -9.049,9.048 l -35.433,0 c -4.973,0 -9.049,-4.075 -9.049,-9.048 l 0,-5.389 C -44.482,4.077 -40.406,0 -35.433,0"
         style="fill:#231f20;fill-opacity:1;fill-rule:nonzero;stroke:none"
         id="path2012" />
    </g>
    <g
       id="g2014"
       transform="matrix(7.4723057,0,0,-7.4723057,518.90441,451.07859)">
      <path
         d="m 0,0 0,5.389 c 0,4.072 3.314,7.32 7.32,7.32 l 9.187,0 c 4.007,0 7.253,-3.248 7.253,-7.32 L 23.76,0 c 0,-4.005 -3.246,-7.32 -7.253,-7.32 l -20.239,0 C -1.451,-5.664 0,-3.036 0,0"
         style="fill:#ffffff;fill-opacity:1;fill-rule:nonzero;stroke:none"
         id="path2016" />
    </g>
    <g
       id="g2018"
       transform="matrix(7.4723057,0,0,-7.4723057,430.12595,472.2626)">
      <path
         d="m 0,0 -3.043,0 -0.55,2.56 C -3.938,4.354 -4.285,6.565 -4.354,7.393 -4.423,6.565 -4.77,4.354 -5.179,2.56 L -5.734,0 l -2.968,0 -2.767,11.748 3.317,0 0.343,-2.004 c 0.276,-1.66 0.556,-3.659 0.695,-5.044 0.136,1.385 0.481,3.384 0.896,5.044 l 0.412,2.004 2.972,0 0.413,-2.004 c 0.348,-1.66 0.693,-3.659 0.833,-5.044 0.136,1.385 0.482,3.384 0.757,5.044 l 0.278,2.004 3.313,0"
         style="fill:#ffffff;fill-opacity:1;fill-rule:nonzero;stroke:none"
         id="path2020" />
    </g>
    <g
       id="g2022"
       transform="matrix(7.4723057,0,0,-7.4723057,472.9572,401.52225)">
      <path
         d="m 0,0 c -0.968,0 -1.727,0.553 -1.727,1.451 0,0.899 0.759,1.45 1.727,1.45 1.036,0 1.796,-0.551 1.796,-1.45 C 1.796,0.553 1.036,0 0,0 m -1.521,-0.968 3.0401,0 0,-8.4984 -3.0401,0 0,8.4984 z"
         style="fill:#ffffff;fill-opacity:1;fill-rule:nonzero;stroke:none"
         id="path2024" />
    </g>
    <g
       id="g2026"
       transform="matrix(7.4723057,0,0,-7.4723057,574.10981,405.16126)">
      <path
         d="m 0,0 0,-2.618 6.22,0 0,-2.767 -6.22,0 0,-3.593 -3.247,0 0,11.748 10.156,0 0,-2.77"
         style="fill:#231f20;fill-opacity:1;fill-rule:nonzero;stroke:none"
         id="path2028" />
    </g>
    <g
       id="g2030"
       transform="matrix(7.4723057,0,0,-7.4723057,651.02973,401.52225)">
      <path
         d="m 0,0 c -0.97,0 -1.727,0.553 -1.727,1.451 0,0.899 0.757,1.45 1.727,1.45 1.035,0 1.797,-0.551 1.797,-1.45 C 1.797,0.553 1.035,0 0,0 m -1.521,-0.968 3.0371,0 0,-8.4984 -3.0371,0 0,8.4984 z"
         style="fill:#231f20;fill-opacity:1;fill-rule:nonzero;stroke:none"
         id="path2032" />
    </g>
  </g>
</svg>
